<?xml version="1.0" encoding="UTF-8" standalone="no"?>
<!-- Created with Inkscape (http://www.inkscape.org/) -->

<svg
   version="1.1"
   id="svg1"
   width="1024"
   height="1024"
   viewBox="0 0 1024 1024"
   sodipodi:docname="AITBC.svg"
   inkscape:version="1.4 (e7c3feb100, 2024-10-09)"
   xmlns:inkscape="http://www.inkscape.org/namespaces/inkscape"
   xmlns:sodipodi="http://sodipodi.sourceforge.net/DTD/sodipodi-0.dtd"
   xmlns="http://www.w3.org/2000/svg"
   xmlns:svg="http://www.w3.org/2000/svg">
  <defs
     id="defs1" />
  <sodipodi:namedview
     id="namedview1"
     pagecolor="#ffffff"
     bordercolor="#000000"
     borderopacity="0.25"
     inkscape:showpageshadow="2"
     inkscape:pageopacity="0.0"
     inkscape:pagecheckerboard="0"
     inkscape:deskcolor="#d1d1d1"
     inkscape:zoom="0.79199219"
     inkscape:cx="511.36868"
     inkscape:cy="410.9889"
     inkscape:window-width="3840"
     inkscape:window-height="1014"
     inkscape:window-x="0"
     inkscape:window-y="0"
     inkscape:window-maximized="1"
     inkscape:current-layer="g1" />
  <g
     inkscape:groupmode="layer"
     inkscape:label="Image"
     id="g1">
    <path
       style="fill:#000000"
       d="m 478.56042,898.10111 h -28.5 v -4.3907 -4.3907 l 7.59846,-0.3837 7.59845,-0.38371 1.40155,-1.91672 1.40154,-1.91673 V 747.40377 610.08869 l -76.71501,0.25621 -76.715,0.25621 -20.44901,33.5 -20.44901,33.5 -18.18633,30 -18.18633,30 -20.03427,33.10467 -20.03427,33.10467 v 4.95899 4.959 l -2.01807,3.93634 -2.01806,3.93633 -2.34732,2.13303 -2.34732,2.13302 -3.20034,1.61698 -3.20034,1.61697 h -5.5895 -5.5895 l -3.71016,-1.90842 -3.71016,-1.90841 -2.68638,-2.84159 -2.68638,-2.84158 -1.06362,-2.8151 -1.06362,-2.8151 v -5.2005 -5.2005 l 1.85527,-3.45935 1.85526,-3.45934 3.63801,-2.94448 3.638,-2.94449 6.69466,-0.58057 6.69467,-0.58057 23.58598,-39 23.58598,-39 17.84925,-29.5 17.84925,-29.5 34.53672,-56.5 34.53671,-56.5 35.16923,-57.5 35.16924,-57.5 10.80566,-17.5 10.80566,-17.5 17.84394,-28.61276 17.84395,-28.61275 0.62827,-1.63725 0.62827,-1.63724 H 350.66741 240.06042 v -31.92764 -31.92764 l 1.06742,-7.82236 1.06741,-7.82236 2.38735,-9.50276 2.38735,-9.50276 3.07093,-7.44708 3.07092,-7.44708 3.45269,-6.17399 3.45269,-6.17399 6.89861,-8.92618 6.8986,-8.92617 7.37302,-6.56394 7.37301,-6.56393 6.92661,-4.71369 6.9266,-4.7137 7.5734,-3.78088 7.57339,-3.78088 8,-2.61567 8,-2.61566 8.88099,-1.52582 8.88099,-1.52582 h 13.19279 13.1928 l 9.42621,1.61784 9.42622,1.61785 8.5,2.99715 8.5,2.99715 7,3.52336 7,3.52336 7.5,5.01856 7.5,5.01855 10.0674,10.09309 10.0674,10.09309 4.84384,7.37703 4.84384,7.37702 3.8827,7.92134 3.8827,7.92135 3.39504,10.20163 3.39504,10.20163 1.56102,10.62834 1.56102,10.62834 v 21.12166 21.12166 l 68.75,-0.001 68.75,-10e-4 V 288.35 268.60111 l 1.7979,-8.33592 1.7978,-8.33592 3.0464,-9.16408 3.0463,-9.16408 5.5111,-10.65939 5.511,-10.6594 7.77,-10.3406 7.7701,-10.34061 8.4363,-8.09164 8.4363,-8.09164 7.4384,-5.25103 7.4384,-5.25104 8.804,-4.44447 8.804,-4.44448 8.7004,-2.9149 8.7004,-2.9149 8.8766,-1.54795 8.8766,-1.54795 h 13.8335 13.8336 l 9.7854,1.91338 9.7855,1.91338 7.5,2.69599 7.5,2.696 7.8025,3.90395 7.8025,3.90395 6.6975,4.48719 6.6975,4.48719 1.8602,1.44032 1.8602,1.44033 -2.305,3.30916 -2.305,3.30916 -3.5052,4.5 -3.5052,4.5 -0.6836,0.83361 -0.6836,0.83361 -6.3515,-4.67565 -6.3514,-4.67566 -9.0149,-4.34145 -9.015,-4.34144 -6.5,-2.12598 -6.5,-2.12598 -11.1609,-1.65102 -11.1609,-1.65102 -11.3391,1.16215 -11.3391,1.16216 -7,1.8979 -7,1.89791 -6.5,2.76085 -6.5,2.76086 -6.5,3.81983 -6.5,3.81984 -8.0354,6.46845 -8.0354,6.46846 -5.9646,7.14622 -5.9646,7.14622 -3.7665,5.70507 -3.7665,5.70506 -3.8737,7.5 -3.8738,7.5 -2.6871,7.5 -2.6872,7.5 -2.069,9.5 -2.0689,9.5 -0.068,15 -0.068,15 1.8314,8.5 1.8314,8.5 2.9977,8.5 2.9976,8.5 3.017,5.98147 3.017,5.98147 4.3116,6.51853 4.3116,6.51853 4.8071,5.64873 4.8072,5.64873 6.2334,5.55275 6.2334,5.55276 5.7666,3.91366 5.7666,3.91367 8,4.01879 8,4.01878 6.9424,2.14296 6.9424,2.14297 9.0576,1.46908 9.0576,1.46908 h 9 9 l 9,-1.46702 9,-1.46701 8.5,-2.88311 8.5,-2.88311 5.3076,-2.69188 5.3076,-2.69188 6.5731,-4.02322 6.5732,-4.02323 0.6896,0.81925 0.6897,0.81925 5.1796,7.12231 5.1796,7.12232 v 0.50279 0.50278 l -7.25,4.99813 -7.25,4.99813 -7,3.50114 -7,3.50114 -7.2663,2.61002 -7.2664,2.61003 -10.2336,2.16987 -10.2337,2.16988 -15,0.0255 -15,0.0255 -11,-2.17559 -11,-2.17558 -8.2892,-2.97732 -8.2892,-2.97732 -9.2108,-4.75282 -9.2108,-4.75282 -9.5856,-7.21529 -9.5855,-7.21529 -8.0984,-8.55535 -8.0983,-8.55536 -6.1013,-9.12144 -6.1012,-9.12144 -4.3779,-9.13193 -4.378,-9.13199 -2.2219,-6.75 -2.2219,-6.75 h -70.86585 -70.86505 v 130.36248 130.36248 l 8.75,0.70993 8.75,0.70993 6.5,1.46936 6.5,1.46936 6.5,2.08527 6.5,2.08526 8.72708,4.29415 8.72707,4.29415 7.00776,4.70169 7.00775,4.7017 5.76517,5.03057 5.76517,5.03058 5.75495,6.50051 5.75496,6.5005 3.46849,5.22548 3.4685,5.22549 4.4342,8.87055 4.4342,8.87056 3.0192,9.5335 3.0191,9.53349 1.5732,10.59484 1.5732,10.59485 v 6.16107 6.16108 l -1.0748,9.63908 -1.0748,9.63908 -2.4065,9.26204 -2.4065,9.26203 -3.8877,9.01762 -3.8877,9.01762 -6.8478,10.29185 -6.84777,10.29185 -9.03321,9.00732 -9.03322,9.00733 -6.90212,4.90175 -6.90212,4.90175 -9.09788,4.60609 -9.09788,4.60609 -8.5,2.7321 -8.5,2.7321 -10,1.49684 -10,1.49684 -3.75,0.006 -3.75,0.006 v 21.30887 21.30887 l 1.39098,1.90228 1.39098,1.90228 7.10902,0.4017 7.10902,0.40169 v 4.38716 4.38715 z m 20.25,-77.29917 8.75,-0.59521 8,-2.43936 8,-2.43936 5.71785,-2.5442 5.71784,-2.5442 6.78216,-4.40832 6.78215,-4.40832 6.24651,-5.24457 6.24652,-5.24456 6.53687,-8.16637 6.53687,-8.16636 4.86449,-9.5 4.86449,-9.5 2.12902,-6.94242 2.12903,-6.94242 1.46908,-9.05758 1.46912,-9.05758 v -7.02623 -7.02624 l -1.0488,-8.36403 -1.04876,-8.36403 -3.07115,-9.60973 -3.07115,-9.60974 -3.0076,-6 -3.0076,-6 -3.62249,-5.48992 -3.62249,-5.48992 -6.5,-6.92728 -6.5,-6.92728 -7.96708,-5.92954 -7.96707,-5.92955 -6.58665,-3.31698 -6.58664,-3.31698 -7.86775,-2.56969 -7.86775,-2.56968 -5.57853,-0.9711 -5.57853,-0.9711 -5.25,-0.49837 -5.25,-0.49838 v 105.60091 105.6009 z M 397.56617,590.10111 h 70.49425 V 475.54209 360.98308 l -1,0.61803 -1,0.61803 v 0.92182 0.92182 l -9.15941,14.76917 -9.1594,14.76916 -17.50694,28.5 -17.50694,28.5 -21.17245,34.5 -21.17245,34.5 -13.50395,22 -13.50394,22 -8.15152,13.25 -8.15151,13.25 z m -32.37285,-282 h 103.13291 l -0.55542,-23.75 -0.55541,-23.75 -1.96911,-9 -1.9691,-9 -2.65706,-7 -2.65706,-7 -3.94983,-7.32402 -3.94983,-7.32401 -4.37469,-5.68523 -4.37469,-5.68524 -7.00791,-6.61091 -7.00791,-6.6109 -4.67178,-3.21428 -4.67179,-3.21427 -7.69711,-3.8209 -7.69711,-3.8209 -8.0461,-2.51395 -8.0461,-2.51395 -10.40173,-1.20927 -10.40172,-1.20926 -8.82128,0.66592 -8.82127,0.66592 -9.24238,2.34452 -9.24238,2.34452 -6.66478,3.02195 -6.66479,3.02196 -6.88522,4.45403 -6.88522,4.45403 -6.7948,6.3562 -6.79479,6.35619 -4.24607,5.53593 -4.24606,5.53592 -4.24971,7.5 -4.2497,7.5 -3.40871,10.1588 -3.40871,10.15881 -1.48334,9.84119 -1.48335,9.8412 -0.006,20.25 -0.006,20.25 z"
       id="path1" />
  </g>
</svg>
